<?xml version="1.0" standalone="no"?>
<!DOCTYPE svg PUBLIC "-//W3C//DTD SVG 20010904//EN"
 "http://www.w3.org/TR/2001/REC-SVG-20010904/DTD/svg10.dtd">
<svg version="1.0" xmlns="http://www.w3.org/2000/svg"
 width="820.000000pt" height="512.000000pt" viewBox="0 0 820.000000 512.000000"
 preserveAspectRatio="xMidYMid meet">
<metadata>
Created by potrace 1.16, written by Peter Selinger 2001-2019
</metadata>
<g transform="translate(0.000000,512.000000) scale(0.100000,-0.100000)"
fill="#000000" stroke="none">
<path d="M2610 2560 l0 -1710 318 2 317 3 3 638 2 637 850 0 850 0 2 -637 3
-638 318 -3 317 -2 0 1710 0 1710 -317 -2 -318 -3 -3 -637 -2 -638 -850 0
-850 0 -2 638 -3 637 -317 3 -318 2 0 -1710z"/>
<path d="M1970 3520 l0 -530 -215 0 -215 0 0 -430 0 -430 215 0 215 0 0 -530
0 -530 210 0 210 0 0 1490 0 1490 -210 0 -210 0 0 -530z"/>
<path d="M5810 2560 l0 -1490 210 0 210 0 0 530 0 530 215 0 215 0 0 430 0
430 -215 0 -215 0 0 530 0 530 -210 0 -210 0 0 -1490z"/>
</g>
</svg>
